<svg width="1920" height="1080" viewBox="0 0 1920 1080" fill="none" xmlns="http://www.w3.org/2000/svg">
<path d="M1414.5 758.143C1409.07 758.143 1401.38 767.186 1401.38 772.893C1401.38 775.464 1403.21 777 1406.28 777C1409.62 777 1411.82 775.153 1414.5 775.153C1417.2 775.153 1419.41 777 1422.72 777C1425.79 777 1427.63 775.464 1427.63 772.893C1427.63 767.186 1419.93 758.143 1414.5 758.143ZM1404.43 757.214C1403.72 754.662 1401.53 753.009 1399.54 753.522C1397.55 754.034 1396.51 756.519 1397.22 759.071C1397.93 761.624 1400.13 763.276 1402.12 762.764C1404.11 762.251 1405.14 759.767 1404.43 757.214V757.214ZM1410.22 755.684C1412.34 755.084 1413.4 752.005 1412.59 748.807C1411.78 745.609 1409.41 743.503 1407.29 744.102C1405.18 744.702 1404.12 747.781 1404.93 750.979C1405.74 754.177 1408.11 756.284 1410.22 755.684ZM1429.46 753.522C1427.47 753.01 1425.28 754.663 1424.57 757.215C1423.86 759.767 1424.89 762.252 1426.88 762.765C1428.87 763.277 1431.06 761.624 1431.78 759.072C1432.49 756.52 1431.45 754.035 1429.46 753.522V753.522ZM1418.78 755.684C1420.89 756.283 1423.26 754.177 1424.07 750.979C1424.88 747.781 1423.82 744.702 1421.71 744.102C1419.59 743.502 1417.22 745.609 1416.41 748.807C1415.6 752.005 1416.66 755.084 1418.78 755.684V755.684Z" fill="#04D361" fill-opacity="0.4"/>
<path d="M1745.5 910.143C1740.07 910.143 1732.38 919.186 1732.38 924.893C1732.38 927.464 1734.21 929 1737.28 929C1740.62 929 1742.82 927.153 1745.5 927.153C1748.2 927.153 1750.41 929 1753.72 929C1756.79 929 1758.63 927.464 1758.63 924.893C1758.63 919.186 1750.93 910.143 1745.5 910.143ZM1735.43 909.214C1734.72 906.662 1732.53 905.009 1730.54 905.522C1728.55 906.034 1727.51 908.519 1728.22 911.071C1728.93 913.624 1731.13 915.276 1733.12 914.764C1735.11 914.251 1736.14 911.767 1735.43 909.214V909.214ZM1741.22 907.684C1743.34 907.084 1744.4 904.005 1743.59 900.807C1742.78 897.609 1740.41 895.503 1738.29 896.102C1736.18 896.702 1735.12 899.781 1735.93 902.979C1736.74 906.177 1739.11 908.284 1741.22 907.684ZM1760.46 905.522C1758.47 905.01 1756.28 906.663 1755.57 909.215C1754.86 911.767 1755.89 914.252 1757.88 914.765C1759.87 915.277 1762.06 913.624 1762.78 911.072C1763.49 908.52 1762.45 906.035 1760.46 905.522V905.522ZM1749.78 907.684C1751.89 908.283 1754.26 906.177 1755.07 902.979C1755.88 899.781 1754.82 896.702 1752.71 896.102C1750.59 895.502 1748.22 897.609 1747.41 900.807C1746.6 904.005 1747.66 907.084 1749.78 907.684V907.684Z" fill="#04D361" fill-opacity="0.4"/>
<path d="M1113.5 88.1432C1108.07 88.1432 1100.38 97.1856 1100.38 102.893C1100.38 105.464 1102.21 107 1105.28 107C1108.62 107 1110.82 105.153 1113.5 105.153C1116.2 105.153 1118.41 107 1121.72 107C1124.79 107 1126.63 105.464 1126.63 102.893C1126.63 97.1856 1118.93 88.1432 1113.5 88.1432ZM1103.43 87.2143C1102.72 84.662 1100.53 83.0091 1098.54 83.5218C1096.55 84.0344 1095.51 86.519 1096.22 89.0713C1096.93 91.6236 1099.13 93.2765 1101.12 92.7638C1103.11 92.2511 1104.14 89.7666 1103.43 87.2143V87.2143ZM1109.22 85.6837C1111.34 85.0841 1112.4 82.0051 1111.59 78.8068C1110.78 75.6085 1108.41 73.5026 1106.29 74.1022C1104.18 74.7018 1103.12 77.7807 1103.93 80.979C1104.74 84.1773 1107.11 86.284 1109.22 85.6837ZM1128.46 83.5225C1126.47 83.0098 1124.28 84.6627 1123.57 87.215C1122.86 89.7673 1123.89 92.2519 1125.88 92.7646C1127.87 93.2772 1130.06 91.6243 1130.78 89.072C1131.49 86.5197 1130.45 84.0352 1128.46 83.5225V83.5225ZM1117.78 85.6837C1119.89 86.2832 1122.26 84.1773 1123.07 80.979C1123.88 77.7807 1122.82 74.7025 1120.71 74.1022C1118.59 73.5018 1116.22 75.6085 1115.41 78.8068C1114.6 82.0051 1115.66 85.0841 1117.78 85.6837V85.6837Z" fill="#04D361" fill-opacity="0.4"/>
<path d="M870.5 741.143C865.072 741.143 857.375 750.186 857.375 755.893C857.375 758.464 859.208 760 862.28 760C865.618 760 867.823 758.153 870.5 758.153C873.201 758.153 875.412 760 878.721 760C881.793 760 883.625 758.464 883.625 755.893C883.625 750.186 875.929 741.143 870.5 741.143ZM860.432 740.214C859.722 737.662 857.531 736.009 855.541 736.522C853.55 737.034 852.513 739.519 853.224 742.071C853.935 744.624 856.125 746.276 858.116 745.764C860.106 745.251 861.143 742.767 860.432 740.214V740.214ZM866.224 738.684C868.339 738.084 869.397 735.005 868.588 731.807C867.778 728.609 865.408 726.503 863.293 727.102C861.178 727.702 860.119 730.781 860.929 733.979C861.738 737.177 864.109 739.284 866.224 738.684ZM885.459 736.522C883.469 736.01 881.279 737.663 880.568 740.215C879.857 742.767 880.894 745.252 882.884 745.765C884.875 746.277 887.064 744.624 887.776 742.072C888.487 739.52 887.45 737.035 885.459 736.522V736.522ZM874.777 738.684C876.892 739.283 879.263 737.177 880.072 733.979C880.881 730.781 879.823 727.702 877.708 727.102C875.593 726.502 873.222 728.609 872.413 731.807C871.604 735.005 872.662 738.084 874.777 738.684V738.684Z" fill="#04D361" fill-opacity="0.4"/>
<path d="M432.5 432.143C427.072 432.143 419.375 441.186 419.375 446.893C419.375 449.464 421.208 451 424.28 451C427.618 451 429.823 449.153 432.5 449.153C435.201 449.153 437.412 451 440.721 451C443.793 451 445.625 449.464 445.625 446.893C445.625 441.186 437.929 432.143 432.5 432.143ZM422.432 431.214C421.722 428.662 419.531 427.009 417.541 427.522C415.55 428.034 414.513 430.519 415.224 433.071C415.935 435.624 418.125 437.276 420.116 436.764C422.106 436.251 423.143 433.767 422.432 431.214V431.214ZM428.224 429.684C430.339 429.084 431.397 426.005 430.588 422.807C429.778 419.609 427.408 417.503 425.293 418.102C423.178 418.702 422.119 421.781 422.929 424.979C423.738 428.177 426.109 430.284 428.224 429.684ZM447.459 427.522C445.469 427.01 443.279 428.663 442.568 431.215C441.857 433.767 442.894 436.252 444.884 436.765C446.875 437.277 449.064 435.624 449.776 433.072C450.487 430.52 449.45 428.035 447.459 427.522V427.522ZM436.777 429.684C438.892 430.283 441.263 428.177 442.072 424.979C442.881 421.781 441.823 418.702 439.708 418.102C437.593 417.502 435.222 419.609 434.413 422.807C433.604 426.005 434.662 429.084 436.777 429.684V429.684Z" fill="#04D361" fill-opacity="0.4"/>
<path d="M695.5 503.143C690.072 503.143 682.375 512.186 682.375 517.893C682.375 520.464 684.208 522 687.28 522C690.618 522 692.823 520.153 695.5 520.153C698.201 520.153 700.412 522 703.721 522C706.793 522 708.625 520.464 708.625 517.893C708.625 512.186 700.929 503.143 695.5 503.143ZM685.432 502.214C684.722 499.662 682.531 498.009 680.541 498.522C678.55 499.034 677.513 501.519 678.224 504.071C678.935 506.624 681.125 508.276 683.116 507.764C685.106 507.251 686.143 504.767 685.432 502.214V502.214ZM691.224 500.684C693.339 500.084 694.397 497.005 693.588 493.807C692.778 490.609 690.408 488.503 688.293 489.102C686.178 489.702 685.119 492.781 685.929 495.979C686.738 499.177 689.109 501.284 691.224 500.684ZM710.459 498.522C708.469 498.01 706.279 499.663 705.568 502.215C704.857 504.767 705.894 507.252 707.884 507.765C709.875 508.277 712.064 506.624 712.776 504.072C713.487 501.52 712.45 499.035 710.459 498.522V498.522ZM699.777 500.684C701.892 501.283 704.263 499.177 705.072 495.979C705.881 492.781 704.823 489.702 702.708 489.102C700.593 488.502 698.222 490.609 697.413 493.807C696.604 497.005 697.662 500.084 699.777 500.684V500.684Z" fill="#04D361" fill-opacity="0.4"/>
<path d="M234.5 521.143C229.072 521.143 221.375 530.186 221.375 535.893C221.375 538.464 223.208 540 226.28 540C229.618 540 231.823 538.153 234.5 538.153C237.201 538.153 239.412 540 242.721 540C245.793 540 247.625 538.464 247.625 535.893C247.625 530.186 239.929 521.143 234.5 521.143ZM224.432 520.214C223.722 517.662 221.531 516.009 219.541 516.522C217.55 517.034 216.513 519.519 217.224 522.071C217.935 524.624 220.125 526.276 222.116 525.764C224.106 525.251 225.143 522.767 224.432 520.214V520.214ZM230.224 518.684C232.339 518.084 233.397 515.005 232.588 511.807C231.778 508.609 229.408 506.503 227.293 507.102C225.178 507.702 224.119 510.781 224.929 513.979C225.738 517.177 228.109 519.284 230.224 518.684ZM249.459 516.522C247.469 516.01 245.279 517.663 244.568 520.215C243.857 522.767 244.894 525.252 246.884 525.765C248.875 526.277 251.064 524.624 251.776 522.072C252.487 519.52 251.45 517.035 249.459 516.522V516.522ZM238.777 518.684C240.892 519.283 243.263 517.177 244.072 513.979C244.881 510.781 243.823 507.702 241.708 507.102C239.593 506.502 237.222 508.609 236.413 511.807C235.604 515.005 236.662 518.084 238.777 518.684V518.684Z" fill="#04D361" fill-opacity="0.4"/>
<path d="M795.5 71.1432C790.072 71.1432 782.375 80.1856 782.375 85.8935C782.375 88.4642 784.208 90 787.28 90C790.618 90 792.823 88.1526 795.5 88.1526C798.201 88.1526 800.412 90 803.721 90C806.793 90 808.625 88.4642 808.625 85.8935C808.625 80.1856 800.929 71.1432 795.5 71.1432ZM785.432 70.2143C784.722 67.662 782.531 66.0091 780.541 66.5218C778.55 67.0344 777.513 69.519 778.224 72.0713C778.935 74.6236 781.125 76.2765 783.116 75.7638C785.106 75.2511 786.143 72.7666 785.432 70.2143V70.2143ZM791.224 68.6837C793.339 68.0841 794.397 65.0051 793.588 61.8068C792.778 58.6085 790.408 56.5026 788.293 57.1022C786.178 57.7018 785.119 60.7807 785.929 63.979C786.738 67.1773 789.109 69.284 791.224 68.6837ZM810.459 66.5225C808.469 66.0098 806.279 67.6627 805.568 70.215C804.857 72.7673 805.894 75.2519 807.884 75.7646C809.875 76.2772 812.064 74.6243 812.776 72.072C813.487 69.5197 812.45 67.0352 810.459 66.5225V66.5225ZM799.777 68.6837C801.892 69.2832 804.263 67.1773 805.072 63.979C805.881 60.7807 804.823 57.7025 802.708 57.1022C800.593 56.5018 798.222 58.6085 797.413 61.8068C796.604 65.0051 797.662 68.0841 799.777 68.6837V68.6837Z" fill="#04D361" fill-opacity="0.4"/>
<path d="M998.5 470.143C993.072 470.143 985.375 479.186 985.375 484.893C985.375 487.464 987.208 489 990.28 489C993.618 489 995.823 487.153 998.5 487.153C1001.2 487.153 1003.41 489 1006.72 489C1009.79 489 1011.63 487.464 1011.63 484.893C1011.63 479.186 1003.93 470.143 998.5 470.143ZM988.432 469.214C987.722 466.662 985.531 465.009 983.541 465.522C981.55 466.034 980.513 468.519 981.224 471.071C981.935 473.624 984.125 475.276 986.116 474.764C988.106 474.251 989.143 471.767 988.432 469.214V469.214ZM994.224 467.684C996.339 467.084 997.397 464.005 996.588 460.807C995.778 457.609 993.408 455.503 991.293 456.102C989.178 456.702 988.119 459.781 988.929 462.979C989.738 466.177 992.109 468.284 994.224 467.684ZM1013.46 465.522C1011.47 465.01 1009.28 466.663 1008.57 469.215C1007.86 471.767 1008.89 474.252 1010.88 474.765C1012.87 475.277 1015.06 473.624 1015.78 471.072C1016.49 468.52 1015.45 466.035 1013.46 465.522V465.522ZM1002.78 467.684C1004.89 468.283 1007.26 466.177 1008.07 462.979C1008.88 459.781 1007.82 456.702 1005.71 456.102C1003.59 455.502 1001.22 457.609 1000.41 460.807C999.604 464.005 1000.66 467.084 1002.78 467.684V467.684Z" fill="#04D361" fill-opacity="0.4"/>
<path d="M1347.5 190.143C1342.07 190.143 1334.38 199.186 1334.38 204.893C1334.38 207.464 1336.21 209 1339.28 209C1342.62 209 1344.82 207.153 1347.5 207.153C1350.2 207.153 1352.41 209 1355.72 209C1358.79 209 1360.63 207.464 1360.63 204.893C1360.63 199.186 1352.93 190.143 1347.5 190.143ZM1337.43 189.214C1336.72 186.662 1334.53 185.009 1332.54 185.522C1330.55 186.034 1329.51 188.519 1330.22 191.071C1330.93 193.624 1333.13 195.276 1335.12 194.764C1337.11 194.251 1338.14 191.767 1337.43 189.214V189.214ZM1343.22 187.684C1345.34 187.084 1346.4 184.005 1345.59 180.807C1344.78 177.609 1342.41 175.503 1340.29 176.102C1338.18 176.702 1337.12 179.781 1337.93 182.979C1338.74 186.177 1341.11 188.284 1343.22 187.684ZM1362.46 185.522C1360.47 185.01 1358.28 186.663 1357.57 189.215C1356.86 191.767 1357.89 194.252 1359.88 194.765C1361.87 195.277 1364.06 193.624 1364.78 191.072C1365.49 188.52 1364.45 186.035 1362.46 185.522V185.522ZM1351.78 187.684C1353.89 188.283 1356.26 186.177 1357.07 182.979C1357.88 179.781 1356.82 176.702 1354.71 176.102C1352.59 175.502 1350.22 177.609 1349.41 180.807C1348.6 184.005 1349.66 187.084 1351.78 187.684V187.684Z" fill="#04D361" fill-opacity="0.4"/>
<path d="M414.5 921.143C409.072 921.143 401.375 930.186 401.375 935.893C401.375 938.464 403.208 940 406.28 940C409.618 940 411.823 938.153 414.5 938.153C417.201 938.153 419.412 940 422.721 940C425.793 940 427.625 938.464 427.625 935.893C427.625 930.186 419.929 921.143 414.5 921.143ZM404.432 920.214C403.722 917.662 401.531 916.009 399.541 916.522C397.55 917.034 396.513 919.519 397.224 922.071C397.935 924.624 400.125 926.276 402.116 925.764C404.106 925.251 405.143 922.767 404.432 920.214V920.214ZM410.224 918.684C412.339 918.084 413.397 915.005 412.588 911.807C411.778 908.609 409.408 906.503 407.293 907.102C405.178 907.702 404.119 910.781 404.929 913.979C405.738 917.177 408.109 919.284 410.224 918.684ZM429.459 916.522C427.469 916.01 425.279 917.663 424.568 920.215C423.857 922.767 424.894 925.252 426.884 925.765C428.875 926.277 431.064 924.624 431.776 922.072C432.487 919.52 431.45 917.035 429.459 916.522V916.522ZM418.777 918.684C420.892 919.283 423.263 917.177 424.072 913.979C424.881 910.781 423.823 907.702 421.708 907.102C419.593 906.502 417.222 908.609 416.413 911.807C415.604 915.005 416.662 918.084 418.777 918.684V918.684Z" fill="#04D361" fill-opacity="0.4"/>
<path d="M121.5 987.143C116.072 987.143 108.375 996.186 108.375 1001.89C108.375 1004.46 110.208 1006 113.28 1006C116.618 1006 118.823 1004.15 121.5 1004.15C124.201 1004.15 126.412 1006 129.721 1006C132.793 1006 134.625 1004.46 134.625 1001.89C134.625 996.186 126.929 987.143 121.5 987.143ZM111.432 986.214C110.722 983.662 108.531 982.009 106.541 982.522C104.55 983.034 103.513 985.519 104.224 988.071C104.935 990.624 107.125 992.276 109.116 991.764C111.106 991.251 112.143 988.767 111.432 986.214V986.214ZM117.224 984.684C119.339 984.084 120.397 981.005 119.588 977.807C118.778 974.609 116.408 972.503 114.293 973.102C112.178 973.702 111.119 976.781 111.929 979.979C112.738 983.177 115.109 985.284 117.224 984.684ZM136.459 982.522C134.469 982.01 132.279 983.663 131.568 986.215C130.857 988.767 131.894 991.252 133.884 991.765C135.875 992.277 138.064 990.624 138.776 988.072C139.487 985.52 138.45 983.035 136.459 982.522V982.522ZM125.777 984.684C127.892 985.283 130.263 983.177 131.072 979.979C131.881 976.781 130.823 973.702 128.708 973.102C126.593 972.502 124.222 974.609 123.413 977.807C122.604 981.005 123.662 984.084 125.777 984.684V984.684Z" fill="#04D361" fill-opacity="0.4"/>
<path d="M1559.5 278.143C1554.07 278.143 1546.38 287.186 1546.38 292.893C1546.38 295.464 1548.21 297 1551.28 297C1554.62 297 1556.82 295.153 1559.5 295.153C1562.2 295.153 1564.41 297 1567.72 297C1570.79 297 1572.63 295.464 1572.63 292.893C1572.63 287.186 1564.93 278.143 1559.5 278.143ZM1549.43 277.214C1548.72 274.662 1546.53 273.009 1544.54 273.522C1542.55 274.034 1541.51 276.519 1542.22 279.071C1542.93 281.624 1545.13 283.276 1547.12 282.764C1549.11 282.251 1550.14 279.767 1549.43 277.214V277.214ZM1555.22 275.684C1557.34 275.084 1558.4 272.005 1557.59 268.807C1556.78 265.609 1554.41 263.503 1552.29 264.102C1550.18 264.702 1549.12 267.781 1549.93 270.979C1550.74 274.177 1553.11 276.284 1555.22 275.684ZM1574.46 273.522C1572.47 273.01 1570.28 274.663 1569.57 277.215C1568.86 279.767 1569.89 282.252 1571.88 282.765C1573.87 283.277 1576.06 281.624 1576.78 279.072C1577.49 276.52 1576.45 274.035 1574.46 273.522V273.522ZM1563.78 275.684C1565.89 276.283 1568.26 274.177 1569.07 270.979C1569.88 267.781 1568.82 264.702 1566.71 264.102C1564.59 263.502 1562.22 265.609 1561.41 268.807C1560.6 272.005 1561.66 275.084 1563.78 275.684V275.684Z" fill="#04D361" fill-opacity="0.4"/>
<path d="M542.5 223.143C537.072 223.143 529.375 232.186 529.375 237.893C529.375 240.464 531.208 242 534.28 242C537.618 242 539.823 240.153 542.5 240.153C545.201 240.153 547.412 242 550.721 242C553.793 242 555.625 240.464 555.625 237.893C555.625 232.186 547.929 223.143 542.5 223.143ZM532.432 222.214C531.722 219.662 529.531 218.009 527.541 218.522C525.55 219.034 524.513 221.519 525.224 224.071C525.935 226.624 528.125 228.276 530.116 227.764C532.106 227.251 533.143 224.767 532.432 222.214V222.214ZM538.224 220.684C540.339 220.084 541.397 217.005 540.588 213.807C539.778 210.609 537.408 208.503 535.293 209.102C533.178 209.702 532.119 212.781 532.929 215.979C533.738 219.177 536.109 221.284 538.224 220.684ZM557.459 218.522C555.469 218.01 553.279 219.663 552.568 222.215C551.857 224.767 552.894 227.252 554.884 227.765C556.875 228.277 559.064 226.624 559.776 224.072C560.487 221.52 559.45 219.035 557.459 218.522V218.522ZM546.777 220.684C548.892 221.283 551.263 219.177 552.072 215.979C552.881 212.781 551.823 209.702 549.708 209.102C547.593 208.502 545.222 210.609 544.413 213.807C543.604 217.005 544.662 220.084 546.777 220.684V220.684Z" fill="#04D361" fill-opacity="0.4"/>
<path d="M230.944 268.214C232.204 267.347 233 265.576 233 263.64V263.114C233 260.289 231.335 258 229.28 258C227.679 258 226.259 259.409 225.752 261.497C225.368 263.08 225.172 264.6 223.846 264.6H210.153C208.784 264.6 208.574 262.844 208.247 261.497C207.741 259.409 206.32 258 204.72 258C202.665 258 201 260.289 201 263.114V263.64C201 265.576 201.796 267.347 203.056 268.214C203.527 268.537 203.527 269.463 203.056 269.787C201.796 270.653 201 272.424 201 274.36V274.886C201 277.711 202.665 280 204.719 280C206.32 280 207.741 278.591 208.247 276.503C208.631 274.92 208.827 273.4 210.153 273.4H223.846C225.215 273.4 225.426 275.156 225.752 276.503C226.259 278.591 227.68 280 229.28 280C231.334 280 232.999 277.711 232.999 274.886V274.36C232.999 272.423 232.204 270.653 230.944 269.787C230.473 269.463 230.473 268.537 230.944 268.214V268.214Z" fill="#007DC5" fill-opacity="0.4"/>
<path d="M499.944 659.214C501.204 658.347 502 656.576 502 654.64V654.114C502 651.289 500.335 649 498.28 649C496.679 649 495.259 650.409 494.752 652.497C494.368 654.08 494.172 655.6 492.846 655.6H479.153C477.784 655.6 477.574 653.844 477.247 652.497C476.741 650.409 475.32 649 473.72 649C471.665 649 470 651.289 470 654.114V654.64C470 656.576 470.796 658.347 472.056 659.214C472.527 659.537 472.527 660.463 472.056 660.787C470.796 661.653 470 663.424 470 665.36V665.886C470 668.711 471.665 671 473.719 671C475.32 671 476.741 669.591 477.247 667.503C477.631 665.92 477.827 664.4 479.153 664.4H492.846C494.215 664.4 494.426 666.156 494.752 667.503C495.259 669.591 496.68 671 498.28 671C500.334 671 501.999 668.711 501.999 665.886V665.36C501.999 663.423 501.204 661.653 499.944 660.787C499.473 660.463 499.473 659.537 499.944 659.214V659.214Z" fill="#007DC5" fill-opacity="0.4"/>
<path d="M1196.94 307.214C1198.2 306.347 1199 304.576 1199 302.64V302.114C1199 299.289 1197.33 297 1195.28 297C1193.68 297 1192.26 298.409 1191.75 300.497C1191.37 302.08 1191.17 303.6 1189.85 303.6H1176.15C1174.78 303.6 1174.57 301.844 1174.25 300.497C1173.74 298.409 1172.32 297 1170.72 297C1168.66 297 1167 299.289 1167 302.114V302.64C1167 304.576 1167.8 306.347 1169.06 307.214C1169.53 307.537 1169.53 308.463 1169.06 308.787C1167.8 309.653 1167 311.424 1167 313.36V313.886C1167 316.711 1168.66 319 1170.72 319C1172.32 319 1173.74 317.591 1174.25 315.503C1174.63 313.92 1174.83 312.4 1176.15 312.4H1189.85C1191.22 312.4 1191.43 314.156 1191.75 315.503C1192.26 317.591 1193.68 319 1195.28 319C1197.33 319 1199 316.711 1199 313.886V313.36C1199 311.423 1198.2 309.653 1196.94 308.787C1196.47 308.463 1196.47 307.537 1196.94 307.214V307.214Z" fill="#007DC5" fill-opacity="0.4"/>
<path d="M1212.94 659.214C1214.2 658.347 1215 656.576 1215 654.64V654.114C1215 651.289 1213.33 649 1211.28 649C1209.68 649 1208.26 650.409 1207.75 652.497C1207.37 654.08 1207.17 655.6 1205.85 655.6H1192.15C1190.78 655.6 1190.57 653.844 1190.25 652.497C1189.74 650.409 1188.32 649 1186.72 649C1184.66 649 1183 651.289 1183 654.114V654.64C1183 656.576 1183.8 658.347 1185.06 659.214C1185.53 659.537 1185.53 660.463 1185.06 660.787C1183.8 661.653 1183 663.424 1183 665.36V665.886C1183 668.711 1184.66 671 1186.72 671C1188.32 671 1189.74 669.591 1190.25 667.503C1190.63 665.92 1190.83 664.4 1192.15 664.4H1205.85C1207.22 664.4 1207.43 666.156 1207.75 667.503C1208.26 669.591 1209.68 671 1211.28 671C1213.33 671 1215 668.711 1215 665.886V665.36C1215 663.423 1214.2 661.653 1212.94 660.787C1212.47 660.463 1212.47 659.537 1212.94 659.214V659.214Z" fill="#007DC5" fill-opacity="0.4"/>
<path d="M168.944 821.214C170.204 820.347 171 818.576 171 816.64V816.114C171 813.289 169.335 811 167.28 811C165.679 811 164.259 812.409 163.752 814.497C163.368 816.08 163.172 817.6 161.846 817.6H148.153C146.784 817.6 146.574 815.844 146.247 814.497C145.741 812.409 144.32 811 142.72 811C140.665 811 139 813.289 139 816.114V816.64C139 818.576 139.796 820.347 141.056 821.214C141.527 821.537 141.527 822.463 141.056 822.787C139.796 823.653 139 825.424 139 827.36V827.886C139 830.711 140.665 833 142.719 833C144.32 833 145.741 831.591 146.247 829.503C146.631 827.92 146.827 826.4 148.153 826.4H161.846C163.215 826.4 163.426 828.156 163.752 829.503C164.259 831.591 165.68 833 167.28 833C169.334 833 170.999 830.711 170.999 827.886V827.36C170.999 825.423 170.204 823.653 168.944 822.787C168.473 822.463 168.473 821.537 168.944 821.214V821.214Z" fill="#007DC5" fill-opacity="0.4"/>
<path d="M1671.94 597.214C1673.2 596.347 1674 594.576 1674 592.64V592.114C1674 589.289 1672.33 587 1670.28 587C1668.68 587 1667.26 588.409 1666.75 590.497C1666.37 592.08 1666.17 593.6 1664.85 593.6H1651.15C1649.78 593.6 1649.57 591.844 1649.25 590.497C1648.74 588.409 1647.32 587 1645.72 587C1643.66 587 1642 589.289 1642 592.114V592.64C1642 594.576 1642.8 596.347 1644.06 597.214C1644.53 597.537 1644.53 598.463 1644.06 598.787C1642.8 599.653 1642 601.424 1642 603.36V603.886C1642 606.711 1643.66 609 1645.72 609C1647.32 609 1648.74 607.591 1649.25 605.503C1649.63 603.92 1649.83 602.4 1651.15 602.4H1664.85C1666.22 602.4 1666.43 604.156 1666.75 605.503C1667.26 607.591 1668.68 609 1670.28 609C1672.33 609 1674 606.711 1674 603.886V603.36C1674 601.423 1673.2 599.653 1671.94 598.787C1671.47 598.463 1671.47 597.537 1671.94 597.214V597.214Z" fill="#007DC5" fill-opacity="0.4"/>
<path d="M917.944 235.214C919.204 234.347 920 232.576 920 230.64V230.114C920 227.289 918.335 225 916.28 225C914.679 225 913.259 226.409 912.752 228.497C912.368 230.08 912.172 231.6 910.846 231.6H897.153C895.784 231.6 895.574 229.844 895.247 228.497C894.741 226.409 893.32 225 891.72 225C889.665 225 888 227.289 888 230.114V230.64C888 232.576 888.796 234.347 890.056 235.214C890.527 235.537 890.527 236.463 890.056 236.787C888.796 237.653 888 239.424 888 241.36V241.886C888 244.711 889.665 247 891.719 247C893.32 247 894.741 245.591 895.247 243.503C895.631 241.92 895.827 240.4 897.153 240.4H910.846C912.215 240.4 912.426 242.156 912.752 243.503C913.259 245.591 914.68 247 916.28 247C918.334 247 919.999 244.711 919.999 241.886V241.36C919.999 239.423 919.204 237.653 917.944 236.787C917.473 236.463 917.473 235.537 917.944 235.214V235.214Z" fill="#007DC5" fill-opacity="0.4"/>
<path d="M281.944 100.214C283.204 99.3473 284 97.5763 284 95.6396V95.1143C284 92.2894 282.335 90 280.28 90C278.679 90 277.259 91.4087 276.752 93.4966C276.368 95.0799 276.172 96.6 274.846 96.6H261.153C259.784 96.6 259.574 94.8441 259.247 93.4966C258.741 91.4087 257.32 90 255.72 90C253.665 90 252 92.2894 252 95.1143V95.6396C252 97.5763 252.796 99.3473 254.056 100.214C254.527 100.537 254.527 101.463 254.056 101.787C252.796 102.653 252 104.424 252 106.36V106.886C252 109.711 253.665 112 255.719 112C257.32 112 258.741 110.591 259.247 108.503C259.631 106.92 259.827 105.4 261.153 105.4H274.846C276.215 105.4 276.426 107.156 276.752 108.503C277.259 110.591 278.68 112 280.28 112C282.334 112 283.999 109.711 283.999 106.886V106.36C283.999 104.423 283.204 102.653 281.944 101.787C281.473 101.463 281.473 100.537 281.944 100.214V100.214Z" fill="#007DC5" fill-opacity="0.4"/>
<path d="M1070.94 843.214C1072.2 842.347 1073 840.576 1073 838.64V838.114C1073 835.289 1071.33 833 1069.28 833C1067.68 833 1066.26 834.409 1065.75 836.497C1065.37 838.08 1065.17 839.6 1063.85 839.6H1050.15C1048.78 839.6 1048.57 837.844 1048.25 836.497C1047.74 834.409 1046.32 833 1044.72 833C1042.66 833 1041 835.289 1041 838.114V838.64C1041 840.576 1041.8 842.347 1043.06 843.214C1043.53 843.537 1043.53 844.463 1043.06 844.787C1041.8 845.653 1041 847.424 1041 849.36V849.886C1041 852.711 1042.66 855 1044.72 855C1046.32 855 1047.74 853.591 1048.25 851.503C1048.63 849.92 1048.83 848.4 1050.15 848.4H1063.85C1065.22 848.4 1065.43 850.156 1065.75 851.503C1066.26 853.591 1067.68 855 1069.28 855C1071.33 855 1073 852.711 1073 849.886V849.36C1073 847.423 1072.2 845.653 1070.94 844.787C1070.47 844.463 1070.47 843.537 1070.94 843.214V843.214Z" fill="#007DC5" fill-opacity="0.4"/>
<path d="M675.944 961.214C677.204 960.347 678 958.576 678 956.64V956.114C678 953.289 676.335 951 674.28 951C672.679 951 671.259 952.409 670.752 954.497C670.368 956.08 670.172 957.6 668.846 957.6H655.153C653.784 957.6 653.574 955.844 653.247 954.497C652.741 952.409 651.32 951 649.72 951C647.665 951 646 953.289 646 956.114V956.64C646 958.576 646.796 960.347 648.056 961.214C648.527 961.537 648.527 962.463 648.056 962.787C646.796 963.653 646 965.424 646 967.36V967.886C646 970.711 647.665 973 649.719 973C651.32 973 652.741 971.591 653.247 969.503C653.631 967.92 653.827 966.4 655.153 966.4H668.846C670.215 966.4 670.426 968.156 670.752 969.503C671.259 971.591 672.68 973 674.28 973C676.334 973 677.999 970.711 677.999 967.886V967.36C677.999 965.423 677.204 963.653 675.944 962.787C675.473 962.463 675.473 961.537 675.944 961.214V961.214Z" fill="#007DC5" fill-opacity="0.4"/>
<path d="M1824.94 397.214C1826.2 396.347 1827 394.576 1827 392.64V392.114C1827 389.289 1825.33 387 1823.28 387C1821.68 387 1820.26 388.409 1819.75 390.497C1819.37 392.08 1819.17 393.6 1817.85 393.6H1804.15C1802.78 393.6 1802.57 391.844 1802.25 390.497C1801.74 388.409 1800.32 387 1798.72 387C1796.66 387 1795 389.289 1795 392.114V392.64C1795 394.576 1795.8 396.347 1797.06 397.214C1797.53 397.537 1797.53 398.463 1797.06 398.787C1795.8 399.653 1795 401.424 1795 403.36V403.886C1795 406.711 1796.66 409 1798.72 409C1800.32 409 1801.74 407.591 1802.25 405.503C1802.63 403.92 1802.83 402.4 1804.15 402.4H1817.85C1819.22 402.4 1819.43 404.156 1819.75 405.503C1820.26 407.591 1821.68 409 1823.28 409C1825.33 409 1827 406.711 1827 403.886V403.36C1827 401.423 1826.2 399.653 1824.94 398.787C1824.47 398.463 1824.47 397.537 1824.94 397.214V397.214Z" fill="#007DC5" fill-opacity="0.4"/>
<path d="M1394.94 444.214C1396.2 443.347 1397 441.576 1397 439.64V439.114C1397 436.289 1395.33 434 1393.28 434C1391.68 434 1390.26 435.409 1389.75 437.497C1389.37 439.08 1389.17 440.6 1387.85 440.6H1374.15C1372.78 440.6 1372.57 438.844 1372.25 437.497C1371.74 435.409 1370.32 434 1368.72 434C1366.66 434 1365 436.289 1365 439.114V439.64C1365 441.576 1365.8 443.347 1367.06 444.214C1367.53 444.537 1367.53 445.463 1367.06 445.787C1365.8 446.653 1365 448.424 1365 450.36V450.886C1365 453.711 1366.66 456 1368.72 456C1370.32 456 1371.74 454.591 1372.25 452.503C1372.63 450.92 1372.83 449.4 1374.15 449.4H1387.85C1389.22 449.4 1389.43 451.156 1389.75 452.503C1390.26 454.591 1391.68 456 1393.28 456C1395.33 456 1397 453.711 1397 450.886V450.36C1397 448.423 1396.2 446.653 1394.94 445.787C1394.47 445.463 1394.47 444.537 1394.94 444.214V444.214Z" fill="#007DC5" fill-opacity="0.4"/>
<path d="M1606.94 89.2135C1608.2 88.3473 1609 86.5763 1609 84.6396V84.1143C1609 81.2894 1607.33 79 1605.28 79C1603.68 79 1602.26 80.4087 1601.75 82.4966C1601.37 84.0799 1601.17 85.6 1599.85 85.6H1586.15C1584.78 85.6 1584.57 83.8441 1584.25 82.4966C1583.74 80.4087 1582.32 79 1580.72 79C1578.66 79 1577 81.2894 1577 84.1143V84.6396C1577 86.5763 1577.8 88.3473 1579.06 89.2135C1579.53 89.5373 1579.53 90.4627 1579.06 90.7865C1577.8 91.6528 1577 93.4238 1577 95.3604V95.8857C1577 98.7106 1578.66 101 1580.72 101C1582.32 101 1583.74 99.5913 1584.25 97.5034C1584.63 95.9201 1584.83 94.4 1586.15 94.4H1599.85C1601.22 94.4 1601.43 96.1559 1601.75 97.5034C1602.26 99.5913 1603.68 101 1605.28 101C1607.33 101 1609 98.7106 1609 95.8857V95.3604C1609 93.4231 1608.2 91.6528 1606.94 90.7865C1606.47 90.4627 1606.47 89.5373 1606.94 89.2135V89.2135Z" fill="#007DC5" fill-opacity="0.4"/>
<path d="M1244.94 939.214C1246.2 938.347 1247 936.576 1247 934.64V934.114C1247 931.289 1245.33 929 1243.28 929C1241.68 929 1240.26 930.409 1239.75 932.497C1239.37 934.08 1239.17 935.6 1237.85 935.6H1224.15C1222.78 935.6 1222.57 933.844 1222.25 932.497C1221.74 930.409 1220.32 929 1218.72 929C1216.66 929 1215 931.289 1215 934.114V934.64C1215 936.576 1215.8 938.347 1217.06 939.214C1217.53 939.537 1217.53 940.463 1217.06 940.787C1215.8 941.653 1215 943.424 1215 945.36V945.886C1215 948.711 1216.66 951 1218.72 951C1220.32 951 1221.74 949.591 1222.25 947.503C1222.63 945.92 1222.83 944.4 1224.15 944.4H1237.85C1239.22 944.4 1239.43 946.156 1239.75 947.503C1240.26 949.591 1241.68 951 1243.28 951C1245.33 951 1247 948.711 1247 945.886V945.36C1247 943.423 1246.2 941.653 1244.94 940.787C1244.47 940.463 1244.47 939.537 1244.94 939.214V939.214Z" fill="#007DC5" fill-opacity="0.4"/>
<path d="M1521.94 961.214C1523.2 960.347 1524 958.576 1524 956.64V956.114C1524 953.289 1522.33 951 1520.28 951C1518.68 951 1517.26 952.409 1516.75 954.497C1516.37 956.08 1516.17 957.6 1514.85 957.6H1501.15C1499.78 957.6 1499.57 955.844 1499.25 954.497C1498.74 952.409 1497.32 951 1495.72 951C1493.66 951 1492 953.289 1492 956.114V956.64C1492 958.576 1492.8 960.347 1494.06 961.214C1494.53 961.537 1494.53 962.463 1494.06 962.787C1492.8 963.653 1492 965.424 1492 967.36V967.886C1492 970.711 1493.66 973 1495.72 973C1497.32 973 1498.74 971.591 1499.25 969.503C1499.63 967.92 1499.83 966.4 1501.15 966.4H1514.85C1516.22 966.4 1516.43 968.156 1516.75 969.503C1517.26 971.591 1518.68 973 1520.28 973C1522.33 973 1524 970.711 1524 967.886V967.36C1524 965.423 1523.2 963.653 1521.94 962.787C1521.47 962.463 1521.47 961.537 1521.94 961.214V961.214Z" fill="#007DC5" fill-opacity="0.4"/>
<path d="M1757.94 1016.21C1759.2 1015.35 1760 1013.58 1760 1011.64V1011.11C1760 1008.29 1758.33 1006 1756.28 1006C1754.68 1006 1753.26 1007.41 1752.75 1009.5C1752.37 1011.08 1752.17 1012.6 1750.85 1012.6H1737.15C1735.78 1012.6 1735.57 1010.84 1735.25 1009.5C1734.74 1007.41 1733.32 1006 1731.72 1006C1729.66 1006 1728 1008.29 1728 1011.11V1011.64C1728 1013.58 1728.8 1015.35 1730.06 1016.21C1730.53 1016.54 1730.53 1017.46 1730.06 1017.79C1728.8 1018.65 1728 1020.42 1728 1022.36V1022.89C1728 1025.71 1729.66 1028 1731.72 1028C1733.32 1028 1734.74 1026.59 1735.25 1024.5C1735.63 1022.92 1735.83 1021.4 1737.15 1021.4H1750.85C1752.22 1021.4 1752.43 1023.16 1752.75 1024.5C1753.26 1026.59 1754.68 1028 1756.28 1028C1758.33 1028 1760 1025.71 1760 1022.89V1022.36C1760 1020.42 1759.2 1018.65 1757.94 1017.79C1757.47 1017.46 1757.47 1016.54 1757.94 1016.21V1016.21Z" fill="#007DC5" fill-opacity="0.4"/>
</svg>
