<svg width="299" height="112" viewBox="0 0 299 112" fill="none" xmlns="http://www.w3.org/2000/svg">
<path d="M69.2347 44.8472C48.1678 44.3664 17.6665 71.3668 17.2677 88.8406C17.0881 96.7105 24.0934 101.574 36.013 101.847C48.9699 102.142 57.6547 96.682 68.0463 96.9192C78.5281 97.1584 86.9786 103.01 99.8215 103.303C111.741 103.575 118.961 99.0355 119.141 91.1657C119.539 73.6918 90.3017 45.328 69.2347 44.8472ZM30.2272 41.112C27.6464 33.2355 19.2619 27.9813 11.5007 29.3745C3.73957 30.7676 -0.458532 38.2818 2.1222 46.1583C4.70292 54.0347 13.0875 59.2889 20.8486 57.8958C28.6098 56.5026 32.8079 48.9884 30.2272 41.112ZM52.8098 36.9391C61.0599 35.2909 65.3818 25.9588 62.4641 16.096C59.5465 6.23317 50.4933 -0.423786 42.2432 1.22443C33.9931 2.87265 29.6712 12.2047 32.5889 22.0675C35.5065 31.9303 44.5623 38.5896 52.8098 36.9391ZM127.612 32.0267C119.922 30.2809 111.309 35.1472 108.369 42.8976C105.432 50.6482 109.283 58.3461 116.972 60.0918C124.662 61.8376 133.275 56.9714 136.215 49.2209C139.152 41.4704 135.301 33.7725 127.612 32.0267ZM86.0034 37.6966C94.1697 39.7195 103.517 33.4825 106.882 23.7631C110.246 14.0437 106.355 4.5264 98.1883 2.50126C90.0221 0.476122 80.6745 6.71538 77.31 16.4348C73.9454 26.1542 77.8371 35.6738 86.0034 37.6966Z" fill="#007DC5"/>
<path d="M49.7656 94H39.6758V43.5859H49.7656V63.7656H69.9102V43.5859H80V94H69.9102V73.8555H49.7656V94ZM102.781 84.7891C103.156 84.9062 103.531 84.9883 103.906 85.0352C104.281 85.0586 104.656 85.0703 105.031 85.0703C105.969 85.0703 106.871 84.9414 107.738 84.6836C108.605 84.4258 109.414 84.0625 110.164 83.5938C110.938 83.1016 111.617 82.5156 112.203 81.8359C112.812 81.1328 113.305 80.3594 113.68 79.5156L120.711 86.582C119.82 87.8477 118.789 88.9844 117.617 89.9922C116.469 91 115.215 91.8555 113.855 92.5586C112.52 93.2617 111.102 93.7891 109.602 94.1406C108.125 94.5156 106.602 94.7031 105.031 94.7031C102.383 94.7031 99.8867 94.2109 97.543 93.2266C95.2227 92.2422 93.1836 90.8711 91.4258 89.1133C89.6914 87.3555 88.3203 85.2695 87.3125 82.8555C86.3047 80.418 85.8008 77.7461 85.8008 74.8398C85.8008 71.8633 86.3047 69.1445 87.3125 66.6836C88.3203 64.2227 89.6914 62.125 91.4258 60.3906C93.1836 58.6562 95.2227 57.3086 97.543 56.3477C99.8867 55.3867 102.383 54.9062 105.031 54.9062C106.602 54.9062 108.137 55.0938 109.637 55.4688C111.137 55.8438 112.555 56.3828 113.891 57.0859C115.25 57.7891 116.516 58.6562 117.688 59.6875C118.859 60.6953 119.891 61.832 120.781 63.0977L102.781 84.7891ZM107.703 64.9961C107.258 64.832 106.812 64.7266 106.367 64.6797C105.945 64.6328 105.5 64.6094 105.031 64.6094C103.719 64.6094 102.477 64.8555 101.305 65.3477C100.156 65.8164 99.1484 66.4961 98.2812 67.3867C97.4375 68.2773 96.7695 69.3555 96.2773 70.6211C95.7852 71.8633 95.5391 73.2695 95.5391 74.8398C95.5391 75.1914 95.5508 75.5898 95.5742 76.0352C95.6211 76.4805 95.6797 76.9375 95.75 77.4062C95.8438 77.8516 95.9492 78.2852 96.0664 78.707C96.1836 79.1289 96.3359 79.5039 96.5234 79.832L107.703 64.9961ZM135.301 94H125.633V41.3711H135.301V94ZM152.316 108.344H142.648V56.3477H144.969L148.801 60.8828C149.668 60.0625 150.617 59.2891 151.648 58.5625C152.68 57.8359 153.746 57.2148 154.848 56.6992C155.973 56.1602 157.133 55.7383 158.328 55.4336C159.523 55.1289 160.73 54.9766 161.949 54.9766C164.598 54.9766 167.082 55.457 169.402 56.418C171.746 57.3555 173.785 58.6914 175.52 60.4258C177.277 62.1602 178.66 64.2578 179.668 66.7188C180.676 69.1562 181.18 71.8633 181.18 74.8398C181.18 77.9336 180.676 80.7227 179.668 83.207C178.66 85.668 177.277 87.7656 175.52 89.5C173.785 91.2109 171.746 92.5234 169.402 93.4375C167.082 94.3516 164.598 94.8086 161.949 94.8086C161.105 94.8086 160.262 94.7148 159.418 94.5273C158.598 94.3398 157.777 94.0938 156.957 93.7891C156.16 93.4609 155.363 93.0977 154.566 92.6992C153.793 92.3008 153.043 91.8906 152.316 91.4688V108.344ZM171.547 74.8398C171.547 73.2461 171.289 71.8164 170.773 70.5508C170.281 69.2852 169.602 68.2188 168.734 67.3516C167.867 66.4609 166.848 65.7812 165.676 65.3125C164.504 64.8438 163.262 64.6094 161.949 64.6094C160.637 64.6094 159.395 64.8438 158.223 65.3125C157.074 65.7812 156.066 66.4609 155.199 67.3516C154.332 68.2188 153.641 69.2852 153.125 70.5508C152.633 71.8164 152.387 73.2461 152.387 74.8398C152.387 76.3633 152.633 77.7578 153.125 79.0234C153.641 80.2891 154.332 81.3672 155.199 82.2578C156.066 83.1484 157.074 83.8398 158.223 84.332C159.395 84.8242 160.637 85.0703 161.949 85.0703C163.262 85.0703 164.504 84.8242 165.676 84.332C166.848 83.8398 167.867 83.1484 168.734 82.2578C169.602 81.3672 170.281 80.2891 170.773 79.0234C171.289 77.7578 171.547 76.3633 171.547 74.8398ZM197.633 53.6758V73.8555H207.723C209.105 73.8555 210.406 73.5977 211.625 73.082C212.844 72.543 213.91 71.8164 214.824 70.9023C215.738 69.9883 216.453 68.9219 216.969 67.7031C217.508 66.4609 217.777 65.1484 217.777 63.7656C217.777 62.3828 217.508 61.082 216.969 59.8633C216.453 58.6211 215.738 57.543 214.824 56.6289C213.91 55.7148 212.844 55 211.625 54.4844C210.406 53.9453 209.105 53.6758 207.723 53.6758H197.633ZM197.633 94H187.543V43.5859H207.723C209.574 43.5859 211.355 43.832 213.066 44.3242C214.777 44.793 216.371 45.4727 217.848 46.3633C219.348 47.2305 220.707 48.2852 221.926 49.5273C223.168 50.7461 224.223 52.1055 225.09 53.6055C225.98 55.1055 226.66 56.7109 227.129 58.4219C227.621 60.1328 227.867 61.9141 227.867 63.7656C227.867 66.5312 227.34 69.1445 226.285 71.6055C225.23 74.043 223.789 76.1758 221.961 78.0039C220.133 79.832 217.988 81.2734 215.527 82.3281C213.09 83.3828 210.488 83.9102 207.723 83.9102H197.633V94ZM247.766 84.7891C248.141 84.9062 248.516 84.9883 248.891 85.0352C249.266 85.0586 249.641 85.0703 250.016 85.0703C250.953 85.0703 251.855 84.9414 252.723 84.6836C253.59 84.4258 254.398 84.0625 255.148 83.5938C255.922 83.1016 256.602 82.5156 257.188 81.8359C257.797 81.1328 258.289 80.3594 258.664 79.5156L265.695 86.582C264.805 87.8477 263.773 88.9844 262.602 89.9922C261.453 91 260.199 91.8555 258.84 92.5586C257.504 93.2617 256.086 93.7891 254.586 94.1406C253.109 94.5156 251.586 94.7031 250.016 94.7031C247.367 94.7031 244.871 94.2109 242.527 93.2266C240.207 92.2422 238.168 90.8711 236.41 89.1133C234.676 87.3555 233.305 85.2695 232.297 82.8555C231.289 80.418 230.785 77.7461 230.785 74.8398C230.785 71.8633 231.289 69.1445 232.297 66.6836C233.305 64.2227 234.676 62.125 236.41 60.3906C238.168 58.6562 240.207 57.3086 242.527 56.3477C244.871 55.3867 247.367 54.9062 250.016 54.9062C251.586 54.9062 253.121 55.0938 254.621 55.4688C256.121 55.8438 257.539 56.3828 258.875 57.0859C260.234 57.7891 261.5 58.6562 262.672 59.6875C263.844 60.6953 264.875 61.832 265.766 63.0977L247.766 84.7891ZM252.688 64.9961C252.242 64.832 251.797 64.7266 251.352 64.6797C250.93 64.6328 250.484 64.6094 250.016 64.6094C248.703 64.6094 247.461 64.8555 246.289 65.3477C245.141 65.8164 244.133 66.4961 243.266 67.3867C242.422 68.2773 241.754 69.3555 241.262 70.6211C240.77 71.8633 240.523 73.2695 240.523 74.8398C240.523 75.1914 240.535 75.5898 240.559 76.0352C240.605 76.4805 240.664 76.9375 240.734 77.4062C240.828 77.8516 240.934 78.2852 241.051 78.707C241.168 79.1289 241.32 79.5039 241.508 79.832L252.688 64.9961ZM289.496 94C287.176 94 284.996 93.5664 282.957 92.6992C280.918 91.8086 279.125 90.6016 277.578 89.0781C276.055 87.5312 274.848 85.7383 273.957 83.6992C273.09 81.6602 272.656 79.4805 272.656 77.1602V65.9805H267.98V56.418H272.656V41.3711H282.219V56.418H296.773V65.9805H282.219V77.1602C282.219 78.168 282.406 79.1172 282.781 80.0078C283.156 80.875 283.672 81.6367 284.328 82.293C284.984 82.9492 285.758 83.4766 286.648 83.875C287.539 84.25 288.488 84.4375 289.496 84.4375H296.773V94H289.496Z" fill="black"/>
</svg>
